<svg width="31" height="32" viewBox="0 0 31 32" fill="none" xmlns="http://www.w3.org/2000/svg">
<path d="M7.44607 22.8571L13.9034 26.3314V30.4762H3.08966C1.3749 30.4762 0 29.12 0 27.4286V3.04762C0 2.23934 0.325516 1.46417 0.904939 0.892627C1.48436 0.321087 2.27023 0 3.08966 0H4.63448V10.6667L8.49655 8.38095L12.3586 10.6667V0H21.6276C22.447 0 23.2329 0.321087 23.8123 0.892627C24.3917 1.46417 24.7172 2.23934 24.7172 3.04762V16.061L22.4 14.8114L7.44607 22.8571ZM30.8966 22.8571L22.4 18.2857L13.9034 22.8571L22.4 27.4286L30.8966 22.8571ZM16.9931 26.0419V29.0895L22.4 32L27.8069 29.0895V26.0419L22.4 28.9524L16.9931 26.0419Z" fill="white"/>
</svg>
