<svg width="32" height="32" viewBox="0 0 32 32" fill="none" xmlns="http://www.w3.org/2000/svg">
<path d="M26.5295 6.60163C27.0575 7.22563 27.5072 7.91683 27.864 8.66083C27.5671 8.9589 27.2143 9.19533 26.8257 9.35652C26.4372 9.51771 26.0206 9.60046 25.5999 9.60003C25.0281 9.60095 24.4666 9.44786 23.9743 9.15683L26.5295 6.60163ZM25.3983 5.46883L22.8432 8.02563C22.4811 7.41459 22.3332 6.70019 22.4231 5.99564C22.5129 5.29108 22.8353 4.63665 23.3391 4.13603C24.0831 4.49283 24.7743 4.94243 25.3983 5.46883ZM28.7999 12.8C28.8007 11.9406 28.6861 11.0849 28.4592 10.256C27.6592 10.848 26.6703 11.2 25.5999 11.2C24.6025 11.2017 23.6296 10.8912 22.8175 10.312L21.1311 12L27.216 18.0848C28.216 16.568 28.7999 14.752 28.7999 12.8ZM20.7999 6.40003C20.7999 5.32803 21.1504 4.33923 21.7439 3.54083C20.915 3.31398 20.0594 3.19936 19.2 3.20003C17.3209 3.19672 15.4826 3.74771 13.9151 4.78403L20 10.8688L21.6863 9.18083C21.1081 8.369 20.7982 7.39671 20.7999 6.40003ZM18.7311 14.4C20.6163 16.5014 21.8396 19.1123 22.2479 21.9056C23.7631 21.3973 25.1275 20.5191 26.2175 19.3504L20 13.1312L18.7311 14.4ZM18.8688 12L17.6 13.2672C15.499 11.3823 12.8888 10.159 10.096 9.75043C10.6045 8.23586 11.4827 6.87203 12.6512 5.78243L18.8688 12ZM5.59995 11.2C4.96343 11.2 4.35298 11.4529 3.90289 11.903C3.45281 12.3531 3.19995 12.9635 3.19995 13.6V16C3.19995 19.3948 4.54852 22.6505 6.94898 25.051C9.34945 27.4515 12.6052 28.8 16 28.8H18.4C19.0365 28.8 19.6469 28.5472 20.097 28.0971C20.5471 27.647 20.7999 27.0365 20.7999 26.4V24C20.7999 20.6053 19.4514 17.3495 17.0509 14.9491C14.6505 12.5486 11.3947 11.2 7.99995 11.2H5.59995ZM9.83355 17.8336C9.90786 17.7591 9.99614 17.7 10.0933 17.6597C10.1905 17.6194 10.2947 17.5986 10.4 17.5986C10.5052 17.5986 10.6094 17.6194 10.7066 17.6597C10.8038 17.7 10.892 17.7591 10.9664 17.8336L14.1664 21.0336C14.3166 21.1838 14.401 21.3876 14.401 21.6C14.401 21.8125 14.3166 22.0162 14.1664 22.1664C14.0161 22.3166 13.8124 22.401 13.6 22.401C13.3875 22.401 13.1838 22.3166 13.0336 22.1664L9.83355 18.9664C9.75905 18.8921 9.69994 18.8038 9.65961 18.7066C9.61928 18.6094 9.59852 18.5053 9.59852 18.4C9.59852 18.2948 9.61928 18.1906 9.65961 18.0934C9.69994 17.9962 9.75905 17.9079 9.83355 17.8336Z" fill="white"/>
</svg>
