<svg width="22" height="22" viewBox="0 0 22 22" fill="none" xmlns="http://www.w3.org/2000/svg">
<path d="M15.4 6.5V6.6H15.5H19.9V17.75C19.9 18.3202 19.6735 18.8671 19.2703 19.2703C18.8671 19.6735 18.3202 19.9 17.75 19.9H4.25C3.67978 19.9 3.13292 19.6735 2.72972 19.2703C2.32652 18.8671 2.1 18.3202 2.1 17.75V6.6H6.5H6.6V6.5C6.6 5.33305 7.06357 4.21389 7.88873 3.38873C8.71389 2.56357 9.83305 2.1 11 2.1C12.167 2.1 13.2861 2.56357 14.1113 3.38873C14.9364 4.21389 15.4 5.33305 15.4 6.5ZM14 6.6H14.1V6.5C14.1 5.67783 13.7734 4.88933 13.192 4.30797C12.6107 3.72661 11.8222 3.4 11 3.4C10.1778 3.4 9.38933 3.72661 8.80797 4.30797C8.22661 4.88933 7.9 5.67783 7.9 6.5V6.6H8H14ZM3.5 7.9H3.4V8V17.75C3.4 17.9754 3.48955 18.1916 3.64896 18.351C3.80837 18.5104 4.02457 18.6 4.25 18.6H17.75C17.9754 18.6 18.1916 18.5104 18.351 18.351C18.5104 18.1916 18.6 17.9754 18.6 17.75V8V7.9H18.5H15.5H15.4V8V9.4H14.1V8V7.9H14H8H7.9V8V9.4H6.6V8V7.9H6.5H3.5Z" fill="#BEAFC3" stroke="#160524" stroke-width="0.2"/>
</svg>
