<svg width="104" height="28" viewBox="0 0 104 28" fill="none" xmlns="http://www.w3.org/2000/svg">
<path d="M10.34 8.56H13.58V21H10.34V15.36H4.88V21H1.64V8.56H4.88V14.18H10.34V8.56ZM23.7348 19.2V13.1C23.7348 12.8467 23.6948 12.68 23.6148 12.6C23.5348 12.52 23.3682 12.48 23.1148 12.48H20.2548C19.9882 12.48 19.8148 12.52 19.7348 12.6C19.6682 12.68 19.6348 12.8467 19.6348 13.1V19.2C19.6348 19.4667 19.6682 19.64 19.7348 19.72C19.8148 19.7867 19.9882 19.82 20.2548 19.82H23.1148C23.3682 19.82 23.5348 19.7867 23.6148 19.72C23.6948 19.64 23.7348 19.4667 23.7348 19.2ZM18.1348 11.3H25.2348C26.2882 11.3 26.8148 11.8267 26.8148 12.88V19.42C26.8148 20.4733 26.2882 21 25.2348 21H18.1348C17.0815 21 16.5548 20.4733 16.5548 19.42V12.88C16.5548 11.8267 17.0815 11.3 18.1348 11.3ZM32.9041 21H29.8041V7.62H32.9041V21ZM43.0708 19.2V13.1C43.0708 12.8467 43.0308 12.68 42.9508 12.6C42.8708 12.52 42.7041 12.48 42.4508 12.48H39.5908C39.3241 12.48 39.1508 12.52 39.0708 12.6C39.0041 12.68 38.9708 12.8467 38.9708 13.1V19.2C38.9708 19.4667 39.0041 19.64 39.0708 19.72C39.1508 19.7867 39.3241 19.82 39.5908 19.82H42.4508C42.7041 19.82 42.8708 19.7867 42.9508 19.72C43.0308 19.64 43.0708 19.4667 43.0708 19.2ZM37.4708 11.3H44.5708C45.6241 11.3 46.1508 11.8267 46.1508 12.88V19.42C46.1508 20.4733 45.6241 21 44.5708 21H37.4708C36.4174 21 35.8908 20.4733 35.8908 19.42V12.88C35.8908 11.8267 36.4174 11.3 37.4708 11.3Z" fill="#3DDEED"/>
<path d="M59.96 12.54H56.72V10.36C56.72 10.0933 56.68 9.92667 56.6 9.86C56.5333 9.78 56.3667 9.74 56.1 9.74H52.84C52.5867 9.74 52.42 9.78 52.34 9.86C52.26 9.92667 52.22 10.0933 52.22 10.36V19.2C52.22 19.4667 52.26 19.64 52.34 19.72C52.42 19.7867 52.5867 19.82 52.84 19.82H56.12C56.3733 19.82 56.54 19.7867 56.62 19.72C56.7 19.64 56.74 19.4667 56.74 19.2V15.78H54.3V14.6H59.96V19.42C59.96 20.4733 59.4333 21 58.38 21H50.56C49.5067 21 48.98 20.4733 48.98 19.42V10.14C48.98 9.08667 49.5067 8.56 50.56 8.56H58.38C59.4333 8.56 59.96 9.08667 59.96 10.14V12.54ZM66.3291 19.82H69.0291C69.5091 19.82 69.7491 19.6067 69.7491 19.18V13.12C69.7491 12.6933 69.5091 12.48 69.0291 12.48H66.3291C66.0624 12.48 65.8891 12.52 65.8091 12.6C65.7424 12.68 65.7091 12.8467 65.7091 13.1V19.2C65.7091 19.4667 65.7424 19.64 65.8091 19.72C65.8891 19.7867 66.0624 19.82 66.3291 19.82ZM69.7491 11.3H72.8291V21H69.7491V20.34C69.5891 20.78 69.2091 21 68.6091 21H64.2091C63.1557 21 62.6291 20.4733 62.6291 19.42V12.88C62.6291 11.8267 63.1557 11.3 64.2091 11.3H68.6091C69.2091 11.3 69.5891 11.52 69.7491 11.96V11.3ZM84.1364 19.82V21H75.1564V19.82L80.6964 12.48H75.4564V11.3H84.0164V12.48L78.4164 19.82H84.1364ZM89.4005 15.44H93.7205V13.1C93.7205 12.8467 93.6805 12.68 93.6005 12.6C93.5338 12.52 93.3671 12.48 93.1005 12.48H90.0205C89.7538 12.48 89.5805 12.52 89.5005 12.6C89.4338 12.68 89.4005 12.8467 89.4005 13.1V15.44ZM87.9005 11.3H95.1405C96.1938 11.3 96.7205 11.8267 96.7205 12.88V16.62H89.4005V19.2C89.4005 19.4667 89.4338 19.64 89.5005 19.72C89.5805 19.7867 89.7538 19.82 90.0205 19.82H93.0605C93.3271 19.82 93.4938 19.7867 93.5605 19.72C93.6405 19.64 93.6805 19.4667 93.6805 19.2V18.02H96.6805V19.42C96.6805 20.4733 96.1538 21 95.1005 21H87.9005C86.8471 21 86.3205 20.4733 86.3205 19.42V12.88C86.3205 11.8267 86.8471 11.3 87.9005 11.3Z" fill="white"/>
<rect x="100" y="17" width="4" height="4" fill="#3DDEED"/>
</svg>
